<?xml version="1.0" encoding="UTF-8"?><svg id="Layer_1" xmlns="http://www.w3.org/2000/svg" viewBox="0 0 3421.71 622.57"><path d="M706.19,146.35c8.2,2.35,12.9,3.53,14.11,3.53,3.14,0,5.36-.6,6.68-1.82,1.32-1.21,2.44-2.96,3.37-5.24h4.81l1.71,46.08h-5.03c-4.49-10.62-9.12-18.53-13.9-23.74-8.63-9.12-19.85-13.69-33.68-13.69s-26.39,5.33-37.05,15.99c-10.66,10.66-15.98,28.21-15.98,52.66,0,20.17,5.31,35.92,15.93,47.26,10.62,11.33,23.74,17,39.35,17,2.64,0,5.74-.25,9.3-.75,3.56-.5,6.95-1.28,10.16-2.35,5.2-1.71,8.45-3.18,9.73-4.43,1.28-1.24,1.92-3.08,1.92-5.5v-34.88c0-8.46-1.19-13.72-3.58-15.8-2.39-2.08-7.61-3.37-15.66-3.87v-4.06h55.81v4.06c-5.42.36-9.02,1.25-10.8,2.67-2.99,2.28-4.49,6.99-4.49,14.11v43.09c0,2.57-6.29,5.99-18.87,10.26-12.58,4.28-24.68,6.42-36.3,6.42-21.38,0-39.42-6.24-54.1-18.71-16.18-13.76-24.27-32.22-24.27-55.38,0-20.38,6.45-37.85,19.35-52.39,14.18-16.04,33-24.06,56.45-24.06,8.48,0,16.82,1.18,25.02,3.53Z" fill="#231f20"/><path d="M753.03,286.21c8.91-.64,14.68-1.97,17.32-3.99,2.64-2.02,3.96-7.25,3.96-15.69v-97.4c0-8.05-1.32-13.24-3.96-15.56-2.64-2.32-8.41-3.69-17.32-4.12v-4.06h64.79v4.06c-8.91.43-14.68,1.8-17.32,4.12-2.64,2.32-3.96,7.5-3.96,15.56v97.4c0,8.44,1.32,13.67,3.96,15.69,2.64,2.02,8.41,3.35,17.32,3.99v4.06h-64.79v-4.06Z" fill="#231f20"/><path d="M816.89,290.27v-4.06c5.63-.63,9.85-2.75,12.67-6.35,2.82-3.6,7.64-13.46,14.48-29.57l45.62-107.46h4.36l54.56,124.14c3.64,8.22,6.54,13.31,8.71,15.26,2.17,1.95,5.83,3.28,10.96,3.99v4.06h-55.68v-4.06c6.4-.57,10.52-1.26,12.38-2.07,1.85-.82,2.78-2.82,2.78-6.01,0-1.06-.36-2.94-1.07-5.64-.71-2.7-1.71-5.53-2.99-8.51l-8.77-21.06h-57.71c-5.69,14.33-9.08,23.07-10.19,26.23-1.11,3.16-1.66,5.66-1.66,7.5,0,3.69,1.5,6.24,4.49,7.66,1.85.85,5.33,1.49,10.46,1.91v4.06h-43.39ZM911.2,234.03l-25.09-60.3-25.21,60.3h50.3Z" fill="#231f20"/><path d="M997.97,145.39h123.81l1.18,37.21h-5.24c-2.57-11.69-5.83-19.3-9.78-22.83-3.96-3.53-12.28-5.29-24.97-5.29h-12.19v112.05c0,8.44,1.32,13.67,3.96,15.69,2.64,2.02,8.41,3.35,17.32,3.99v4.06h-63.83v-4.06c9.27-.71,15.04-2.23,17.32-4.58,2.28-2.34,3.42-8.23,3.42-17.66v-109.49h-12.3c-12.12,0-20.37,1.75-24.75,5.24-4.38,3.49-7.68,11.12-9.89,22.88h-5.35l1.28-37.21Z" fill="#231f20"/><path d="M1147.25,161.64c13.47-12.9,30.04-19.35,49.72-19.35s36.35,6.49,49.83,19.46c14.61,14.04,21.92,32.75,21.92,56.13s-7.56,42.63-22.67,56.67c-13.54,12.55-29.9,18.82-49.08,18.82-20.53,0-37.57-6.95-51.11-20.85-13.76-14.18-20.64-32.4-20.64-54.64,0-23.38,7.34-42.13,22.03-56.24ZM1163.62,268.94c9.06,11.01,20.2,16.52,33.4,16.52s23.96-5.36,33.13-16.09c9.17-10.73,13.76-27.89,13.76-51.48s-4.64-41.13-13.92-51.75c-9.28-10.62-20.27-15.93-32.97-15.93s-24.25,5.51-33.34,16.52c-9.1,11.01-13.65,28.07-13.65,51.16s4.53,40.04,13.59,51.05ZM1161.68,136.73l27.37-36.46h13.69l27.37,36.46h-7.59l-26.62-22.56-26.62,22.56h-7.59ZM1204.71,322.56c-2.1,2.14-4.69,3.21-7.75,3.21s-5.56-1.07-7.7-3.21c-2.14-2.14-3.21-4.7-3.21-7.7s1.07-5.56,3.21-7.7c2.14-2.14,4.71-3.21,7.7-3.21s5.65,1.07,7.75,3.21c2.1,2.14,3.15,4.7,3.15,7.7s-1.05,5.56-3.15,7.7Z" fill="#231f20"/><path d="M1382.26,146.35c8.34,2.35,13.01,3.53,14.01,3.53,2.07,0,4.03-.57,5.88-1.71,1.85-1.14,3.14-2.92,3.85-5.35h4.6l2.03,49.18h-5.03c-2.92-9.76-6.74-17.64-11.44-23.63-8.98-11.26-21.06-16.89-36.25-16.89s-27.85,6.06-37.58,18.18c-9.73,12.12-14.59,28.8-14.59,50.04,0,19.53,5.11,35.12,15.34,46.78,10.23,11.65,23.18,17.48,38.87,17.48,11.33,0,21.77-2.71,31.33-8.13,5.49-3.06,11.51-7.7,18.07-13.9l4.06,4.06c-4.85,6.13-10.87,11.51-18.07,16.15-12.26,7.84-25.55,11.76-39.88,11.76-23.52,0-42.2-7.52-56.03-22.56-12.76-13.9-19.14-31.26-19.14-52.07s6.74-39.2,20.21-53.67c14.18-15.18,32.65-22.77,55.38-22.77,7.91,0,16.04,1.18,24.38,3.53Z" fill="#231f20"/><path d="M1505.37,145.39h123.81l1.18,37.21h-5.24c-2.57-11.69-5.83-19.3-9.78-22.83-3.96-3.53-12.28-5.29-24.97-5.29h-12.19v112.05c0,8.44,1.32,13.67,3.96,15.69,2.64,2.02,8.41,3.35,17.32,3.99v4.06h-63.83v-4.06c9.27-.71,15.04-2.23,17.32-4.58,2.28-2.34,3.42-8.23,3.42-17.66v-109.49h-12.3c-12.12,0-20.37,1.75-24.75,5.24-4.38,3.49-7.68,11.12-9.89,22.88h-5.35l1.28-37.21Z" fill="#231f20"/><path d="M1628.55,286.21c8.41-.78,13.65-2.41,15.72-4.89,2.07-2.48,3.1-8.26,3.1-17.34v-94.84c0-7.7-1.16-12.74-3.47-15.13-2.32-2.39-7.43-3.9-15.34-4.54v-4.06h60.62c12.62,0,23.13,1.6,31.54,4.8,15.97,6.05,23.95,17.19,23.95,33.42,0,10.89-3.55,19.25-10.64,25.09-7.09,5.84-16.73,9.68-28.92,11.53l45.12,55.58c2.78,3.4,5.56,5.87,8.34,7.43,2.78,1.55,6.34,2.54,10.69,2.97v4.06h-35.27l-54.77-67.47-9.61.53v43.16c0,8.1,1.23,13.23,3.69,15.4,2.46,2.17,7.82,3.6,16.09,4.31v4.06h-60.84v-4.06ZM1703.39,210.29c11.62-4.77,17.43-13.73,17.43-26.89s-5.2-21.31-15.61-25.93c-5.56-2.49-12.94-3.74-22.13-3.74-6.2,0-10,.45-11.39,1.33-1.39.89-2.08,2.97-2.08,6.24v53.9c15.75-.57,27.01-2.21,33.79-4.92Z" fill="#231f20"/><path d="M1809.26,142.83h-8.88l-33.68-21.28c-2.35-1.5-4.05-2.96-5.08-4.38-1.03-1.42-1.55-3.06-1.55-4.92,0-2.07.75-3.76,2.25-5.08,1.5-1.32,3.21-1.98,5.13-1.98s3.56.52,5.13,1.55c1.57,1.03,3.06,2.26,4.49,3.69l32.18,32.4ZM1768.01,290.27v-4.06c5.63-.63,9.85-2.75,12.67-6.35,2.81-3.6,7.64-13.46,14.48-29.57l45.62-107.46h4.36l54.56,124.14c3.64,8.22,6.54,13.31,8.71,15.26,2.17,1.95,5.83,3.28,10.96,3.99v4.06h-55.68v-4.06c6.4-.57,10.52-1.26,12.38-2.07,1.85-.82,2.78-2.82,2.78-6.01,0-1.06-.36-2.94-1.07-5.64-.71-2.7-1.71-5.53-2.99-8.51l-8.77-21.06h-57.71c-5.69,14.33-9.08,23.07-10.19,26.23-1.11,3.16-1.66,5.66-1.66,7.5,0,3.69,1.5,6.24,4.49,7.66,1.85.85,5.33,1.49,10.46,1.91v4.06h-43.39ZM1808.83,141.76l27.37-36.46h13.69l27.37,36.46h-7.59l-26.62-22.56-26.62,22.56h-7.59ZM1862.32,234.03l-25.09-60.3-25.21,60.3h50.3Z" fill="#231f20"/><path d="M1917.47,286.21c9.05-.92,14.86-2.97,17.43-6.14,2.57-3.17,3.85-10.52,3.85-22.06v-96.47l-2.99-3.53c-3.21-3.77-5.93-6.11-8.18-7-2.25-.89-5.61-1.41-10.1-1.55v-4.06h37.36l84.53,104.77v-72.77c0-11.97-1.78-19.76-5.35-23.37-2.35-2.33-7.56-3.86-15.61-4.57v-4.06h51.43v4.06c-8.34.86-13.9,2.89-16.68,6.09-2.78,3.21-4.17,10.55-4.17,22.03v115.26h-3.74l-96.87-120.07v85.24c0,11.97,1.75,19.76,5.24,23.39,2.28,2.35,7.38,3.95,15.29,4.81v4.06h-51.43v-4.06Z" fill="#231f20"/><path d="M2124.34,145.39h123.81l1.18,37.21h-5.24c-2.57-11.69-5.83-19.3-9.78-22.83-3.96-3.53-12.28-5.29-24.97-5.29h-12.19v112.05c0,8.44,1.32,13.67,3.96,15.69,2.64,2.02,8.41,3.35,17.32,3.99v4.06h-63.83v-4.06c9.27-.71,15.04-2.23,17.32-4.58,2.28-2.34,3.42-8.23,3.42-17.66v-109.49h-12.3c-12.12,0-20.37,1.75-24.75,5.24-4.38,3.49-7.68,11.12-9.89,22.88h-5.35l1.28-37.21Z" fill="#231f20"/><path d="M2247.52,286.21c8.41-.78,13.65-2.41,15.72-4.89,2.07-2.48,3.1-8.26,3.1-17.34v-94.84c0-7.7-1.16-12.74-3.47-15.13-2.32-2.39-7.43-3.9-15.34-4.54v-4.06h60.62c12.62,0,23.13,1.6,31.54,4.8,15.97,6.05,23.95,17.19,23.95,33.42,0,10.89-3.55,19.25-10.64,25.09-7.09,5.84-16.73,9.68-28.92,11.53l45.12,55.58c2.78,3.4,5.56,5.87,8.34,7.43,2.78,1.55,6.34,2.54,10.69,2.97v4.06h-35.27l-54.77-67.47-9.61.53v43.16c0,8.1,1.23,13.23,3.69,15.4,2.46,2.17,7.82,3.6,16.09,4.31v4.06h-60.84v-4.06ZM2322.37,210.29c11.62-4.77,17.43-13.73,17.43-26.89s-5.2-21.31-15.61-25.93c-5.56-2.49-12.94-3.74-22.13-3.74-6.2,0-10,.45-11.39,1.33-1.39.89-2.08,2.97-2.08,6.24v53.9c15.75-.57,27.01-2.21,33.79-4.92Z" fill="#231f20"/><path d="M2397.77,161.64c13.47-12.9,30.04-19.35,49.72-19.35s36.35,6.49,49.83,19.46c14.61,14.04,21.92,32.75,21.92,56.13s-7.56,42.63-22.67,56.67c-13.54,12.55-29.9,18.82-49.08,18.82-20.53,0-37.57-6.95-51.11-20.85-13.76-14.18-20.64-32.4-20.64-54.64,0-23.38,7.34-42.13,22.03-56.24ZM2414.14,268.94c9.06,11.01,20.2,16.52,33.4,16.52s23.96-5.36,33.13-16.09c9.17-10.73,13.76-27.89,13.76-51.48s-4.64-41.13-13.92-51.75c-9.28-10.62-20.27-15.93-32.97-15.93s-24.25,5.51-33.34,16.52c-9.1,11.01-13.65,28.07-13.65,51.16s4.53,40.04,13.59,51.05ZM2455.24,322.56c-2.1,2.14-4.69,3.21-7.75,3.21s-5.56-1.07-7.7-3.21c-2.14-2.14-3.21-4.7-3.21-7.7s1.07-5.56,3.21-7.7c2.14-2.14,4.71-3.21,7.7-3.21s5.65,1.07,7.75,3.21c2.1,2.14,3.15,4.7,3.15,7.7s-1.05,5.56-3.15,7.7Z" fill="#231f20"/><path d="M2516.68,286.21c9.05-.92,14.86-2.97,17.43-6.14,2.57-3.17,3.85-10.52,3.85-22.06v-96.47l-2.99-3.53c-3.21-3.77-5.93-6.11-8.18-7-2.25-.89-5.61-1.41-10.1-1.55v-4.06h37.36l84.53,104.77v-72.77c0-11.97-1.78-19.76-5.35-23.37-2.35-2.33-7.56-3.86-15.61-4.57v-4.06h51.43v4.06c-8.34.86-13.9,2.89-16.68,6.09-2.78,3.21-4.17,10.55-4.17,22.03v115.26h-3.74l-96.87-120.07v85.24c0,11.97,1.75,19.76,5.24,23.39,2.28,2.35,7.38,3.95,15.29,4.81v4.06h-51.43v-4.06Z" fill="#231f20"/><path d="M2769.66,146.35c8.2,2.35,12.9,3.53,14.11,3.53,3.14,0,5.36-.6,6.68-1.82,1.32-1.21,2.44-2.96,3.37-5.24h4.81l1.71,46.08h-5.03c-4.49-10.62-9.12-18.53-13.9-23.74-8.63-9.12-19.85-13.69-33.68-13.69s-26.39,5.33-37.05,15.99c-10.66,10.66-15.98,28.21-15.98,52.66,0,20.17,5.31,35.92,15.93,47.26,10.62,11.33,23.74,17,39.35,17,2.64,0,5.74-.25,9.3-.75,3.56-.5,6.95-1.28,10.16-2.35,5.2-1.71,8.45-3.18,9.73-4.43,1.28-1.24,1.92-3.08,1.92-5.5v-34.88c0-8.46-1.19-13.72-3.58-15.8-2.39-2.08-7.61-3.37-15.66-3.87v-4.06h55.81v4.06c-5.42.36-9.02,1.25-10.8,2.67-2.99,2.28-4.49,6.99-4.49,14.11v43.09c0,2.57-6.29,5.99-18.87,10.26-12.58,4.28-24.68,6.42-36.3,6.42-21.38,0-39.42-6.24-54.1-18.71-16.18-13.76-24.27-32.22-24.27-55.38,0-20.38,6.45-37.85,19.35-52.39,14.18-16.04,33-24.06,56.45-24.06,8.48,0,16.82,1.18,25.02,3.53Z" fill="#231f20"/><path d="M2872.93,145.39h123.81l1.18,37.21h-5.24c-2.57-11.69-5.83-19.3-9.78-22.83-3.96-3.53-12.28-5.29-24.97-5.29h-12.19v112.05c0,8.44,1.32,13.67,3.96,15.69,2.64,2.02,8.41,3.35,17.32,3.99v4.06h-63.83v-4.06c9.27-.71,15.04-2.23,17.32-4.58,2.28-2.34,3.42-8.23,3.42-17.66v-109.49h-12.3c-12.12,0-20.37,1.75-24.75,5.24-4.38,3.49-7.68,11.12-9.89,22.88h-5.35l1.28-37.21Z" fill="#231f20"/><path d="M2997.18,286.21c8.55-.92,13.9-2.5,16.04-4.73s3.21-8.07,3.21-17.5v-94.84c0-7.84-1.19-12.94-3.58-15.29-2.39-2.35-7.61-3.81-15.66-4.38v-4.06h60.73v4.06c-8.01.57-13.22,2.03-15.63,4.38-2.41,2.35-3.62,7.45-3.62,15.29v42.66h66.5v-42.66c0-7.84-1.18-12.94-3.53-15.29-2.35-2.35-7.59-3.81-15.72-4.38v-4.06h60.73v4.06c-8.06.57-13.28,2.03-15.66,4.38-2.39,2.35-3.58,7.45-3.58,15.29v97.4c0,7.94,1.19,13.03,3.58,15.26,2.39,2.23,7.61,3.71,15.66,4.41v4.06h-60.73v-4.06c8.62-.85,13.99-2.41,16.09-4.68,2.1-2.27,3.15-8.12,3.15-17.56v-42.55h-66.5v45.12c0,7.94,1.2,13.04,3.62,15.31,2.41,2.27,7.62,3.72,15.63,4.36v4.06h-60.73v-4.06Z" fill="#231f20"/><path d="M3208.14,145.39v4.06c-8.41.57-13.87,1.98-16.36,4.22-2.5,2.25-3.74,7.4-3.74,15.45v70.03c0,11.48,1.57,20.42,4.7,26.84,5.84,11.69,16.93,17.54,33.25,17.54,17.89,0,29.9-5.99,36.03-17.96,3.42-6.7,5.13-17.04,5.13-31.01v-56.99c0-11.9-1.43-19.37-4.28-22.4-2.85-3.03-8.27-4.94-16.25-5.72v-4.06h50.68v4.06c-8.48.93-14.03,2.98-16.63,6.15-2.6,3.17-3.9,10.5-3.9,21.97v56.99c0,15.11-2.32,26.91-6.95,35.39-8.55,15.61-24.81,23.42-48.76,23.42s-39.77-7.7-48.33-23.09c-4.63-8.27-6.95-19.17-6.95-32.72v-68.43c0-7.98-1.23-13.1-3.69-15.34-2.46-2.25-7.82-3.69-16.09-4.33v-4.06h62.12Z" fill="#231f20"/><path d="M624.18,473.67c4.19-.32,7.14-.92,8.84-1.8,2.86-1.52,4.86-4.4,6.01-8.64l20.69-74.69c-10.86,0-18.03.82-21.53,2.45-3.5,1.64-7.57,6.6-12.21,14.89l-2.49-.48,5.87-21.76h75.45l-6.22,23.08-2.49-.35.35-4.91c0-4.33-.98-7.57-2.94-9.71s-5.85-3.21-11.67-3.21h-7.89l-19.83,70.41c-.46,1.52-.8,2.88-1.03,4.08-.41,1.8-.62,3.22-.62,4.28,0,2.76.85,4.48,2.55,5.15,1.7.67,5.04,1.07,10.02,1.21v2.28h-40.86v-2.28Z" fill="#231f20"/><path d="M704.89,426.07c.09-.46.17-.89.24-1.28.07-.39.1-.79.1-1.21,0-1.98-.59-3.19-1.76-3.63-1.17-.44-3.38-.66-6.6-.66v-1.93l10.16-2,10.99-2.07c.23-.05.44.05.62.28.18.23.25.46.21.69l-.21.97-12.23,46.98c-.32,1.15-.55,2.05-.69,2.69-.14.65-.21,1.11-.21,1.38,0,1.06.3,1.89.9,2.49.6.6,1.38.9,2.35.9,2.72,0,6.12-2.42,10.19-7.25,4.08-4.84,7.7-9.86,10.88-15.06,2.86-4.65,5.48-9.83,7.88-15.55,1.47-3.55,3.59-9.19,6.36-16.93h10.43l-3.87,14.44c6.68.14,11.15-.46,13.4-1.8.55-.37.82-.75.79-1.14-.02-.39-.22-.77-.59-1.14-2.21-1.75-3.48-2.79-3.8-3.11-1.29-1.29-1.96-2.84-2-4.66-.05-1.82,1.01-3.37,3.18-4.66,1.61-.92,3.67-1.37,6.18-1.35,2.51.02,4.85,1.09,7.01,3.21,2.26,2.26,3.07,4.79,2.45,7.6-.62,2.81-2.52,5.16-5.7,7.05-4.28,2.58-9.4,3.73-15.34,3.46-2.81-.14-4.88-.46-6.22-.97l-8.57,32.06c-.23.92-.44,1.77-.62,2.56-.18.78-.28,1.43-.28,1.93,0,.6.14,1.12.42,1.55.28.44.76.66,1.45.66s1.41-.26,2.14-.79c.74-.53,1.66-1.35,2.76-2.45.51-.51,1.43-1.59,2.76-3.25.83-1.01,2.1-2.56,3.8-4.63l1.94,1.31c-2.12,3.5-4.33,6.52-6.63,9.05-4.56,5.11-8.8,7.67-12.71,7.67-2.03,0-3.69-.55-4.98-1.66-1.29-1.11-1.93-2.83-1.93-5.18,0-1.2.11-2.51.35-3.94.23-1.43.6-3.04,1.11-4.84.83-3.22,1.89-7.25,3.18-12.09l1.52-5.87h-.48c-6.36,10.55-11.36,18.01-14.99,22.39-6.31,7.51-12.28,11.26-17.9,11.26-1.52,0-2.9-.32-4.15-.97-2.4-1.29-3.59-3.59-3.59-6.91,0-.97.04-1.75.14-2.35.09-.6.25-1.43.48-2.49l9.67-38.76ZM734.19,380.67c.83.65,1.59,1.41,2.28,2.28l16.38,21.14h-4.21l-19.83-15.06c-.78-.6-1.44-1.24-1.97-1.93-.53-.69-.79-1.54-.79-2.56,0-1.33.46-2.48,1.38-3.42.92-.94,2.19-1.42,3.8-1.42,1.15,0,2.14.32,2.97.97Z" fill="#231f20"/><path d="M793.08,473.6l4.7-.07c3.08-.37,5.55-1.05,7.39-2.04,1.84-.99,3.11-2.71,3.8-5.15l19.29-69.65c.32-1.15.56-2.13.73-2.94.16-.81.24-1.53.24-2.18,0-1.61-.53-2.69-1.59-3.25s-2.74-.83-5.04-.83l-6.77.34v-2.14l1.8-.28c1.29-.23,4.71-.9,10.25-2,5.55-1.11,9.5-1.91,11.84-2.42l2.14-.48,1.31-.21.83.48c0,.28-.01.55-.03.83-.02.28-.08.55-.17.83l-23.01,84.64c-.09.37-.17.74-.24,1.11-.07.37-.1.74-.1,1.11,0,1.89.83,3.09,2.49,3.59s4.86.83,9.6.97v2.07h-39.45v-2.35Z" fill="#231f20"/><path d="M868.1,412.84c-2-3.71-3-7.38-3-11.02,0-6.03,2.62-11.24,7.88-15.62,4.88-3.91,10.73-5.87,17.55-5.87,6.36,0,12.09,1.79,17.21,5.36,5.11,3.57,7.67,8.51,7.67,14.82s-3.06,11.22-9.19,15.27c-3.32,2.21-7.99,4.26-14.03,6.15,5.62,5.3,9.76,10.11,12.44,14.44,2.81,4.33,4.21,8.94,4.21,13.82,0,7.14-2.83,13.39-8.5,18.76s-13.04,8.05-22.11,8.05-15.81-2.3-20.76-6.91c-4.95-4.61-7.43-10.04-7.43-16.31,0-8.15,3.57-14.99,10.71-20.52,4.38-3.36,9.93-6.1,16.65-8.22-4.19-4.42-7.29-8.49-9.29-12.2ZM892.07,468.63c3.94-3.36,5.91-8.13,5.91-14.3,0-2.72-.46-5.18-1.38-7.39-.92-2.21-2.03-4.21-3.32-6.01-1.89-2.3-3.97-4.63-6.25-6.98s-4.57-4.49-6.88-6.43c-5.3,1.57-10.05,4.54-14.27,8.91-4.21,4.38-6.32,9.9-6.32,16.58s1.89,12.2,5.67,15.58c3.78,3.39,8.41,5.08,13.89,5.08,4.7,0,9.02-1.68,12.96-5.04ZM901,412.59c3.24-3.18,4.86-7.37,4.86-12.58,0-4.24-1.27-8-3.81-11.3-2.54-3.29-6.23-4.94-11.08-4.94s-8.45,1.44-10.94,4.32c-2.49,2.88-3.74,6.21-3.74,9.98s1.17,7.49,3.52,10.99c2.35,3.5,5.64,6.98,9.88,10.43,5.55-2.67,9.32-4.98,11.31-6.91Z" fill="#231f20"/><path d="M940.33,477.27h-9.95l51.89-84.78-.14-.35h-31.44c-4.52,0-7.89.69-10.12,2.07s-5.15,4.08-8.74,8.08l-1.93-1.31,11.47-19.35h53.07l.76,1.45-54.86,94.18Z" fill="#231f20"/><path d="M991.6,473.54l29.85-31.65c5.11-5.39,9.19-10.23,12.23-14.51,5.39-7.55,8.08-13.96,8.08-19.21,0-4.88-1.58-9.03-4.73-12.44-3.16-3.41-7.47-5.11-12.96-5.11-5.16,0-9.67,1.73-13.54,5.18-2.07,1.89-4.17,4.61-6.29,8.15l-2.97-1.04c3.55-9.58,9.12-16.21,16.72-19.9,3.96-1.89,8.18-2.83,12.64-2.83,7.23,0,12.93,2.46,17.1,7.39,4.17,4.93,6.25,10.41,6.25,16.45,0,5.25-1.55,10.2-4.65,14.86-3.1,4.65-8.36,10.8-15.77,18.45l-26.38,27.22v.62h25.89c3.77,0,6.58-.62,8.42-1.87,1.84-1.24,3.56-3.57,5.16-6.98l2.28.97-7.05,18.66h-50.3v-2.42Z" fill="#231f20"/><path d="M1141.2,415.91c.88,1.01,1.58,2.74,2.08,5.18l5.44-19.13h-20.18l1.66-7.19h20.65l.49-2c.23-.78.38-1.49.45-2.11.07-.62.11-1.16.11-1.62,0-1.8-.34-2.92-1.01-3.39-.67-.46-1.63-.69-2.87-.69-.78,0-1.51.02-2.18.07-.67.05-1.55.12-2.66.21v-2.28c5.21-.69,12.45-1.89,21.73-3.59l.62.69-.14.76-3.87,13.96h11.2l-1.6,7.19h-11.59l-7.8,28.51-9.2,32.86c-.18.74-.33,1.43-.45,2.06-.12.63-.17,1.2-.17,1.71,0,1.26.31,2.07.92,2.44.62.37,1.16.56,1.62.56,1.34,0,3.23-1.18,5.68-3.55,1.43-1.44,3.4-3.66,5.89-6.68l1.59,1.52-.97,1.46c-1.71,2.54-3.9,5.13-6.58,7.77-4.76,4.67-9.03,7.01-12.81,7.01-1.25,0-2.38-.28-3.39-.83-1.89-1.1-2.84-3.08-2.84-5.94,0-.97.14-2.51.42-4.63s.7-4.44,1.26-6.97c-3.5,5.34-7.34,9.71-11.51,13.12s-8.72,5.11-13.66,5.11c-4.01,0-7.51-1.43-10.51-4.28s-4.49-7.25-4.49-13.18c0-10.03,4.63-20.34,13.9-30.92,9.22-10.54,18.21-15.81,26.96-15.81,3.66,0,6.26.87,7.78,2.62ZM1106.79,467.22c1.29,2.09,3.48,3.14,6.57,3.14,6.59,0,12.93-5.29,19.02-15.87,5.84-9.94,8.77-19.34,8.77-28.22,0-2.81-.46-5.13-1.39-6.97-.93-1.84-2.8-2.76-5.63-2.76-7.04,0-13.86,5.66-20.44,16.98-5.89,10.12-8.83,18.91-8.83,26.36,0,2.81.64,5.26,1.94,7.35Z" fill="#231f20"/><path d="M1179.48,427.92c9.12-9.57,18.54-14.36,28.26-14.36,3.59,0,6.45.83,8.57,2.48,2.12,1.66,3.18,4.12,3.18,7.38,0,6.62-3.88,12.29-11.64,17-7.76,4.71-15.93,7.6-24.49,8.65l-3.94.48c-.6,1.89-1.01,3.4-1.24,4.53-.23,1.13-.35,2.54-.35,4.25,0,4.05,1.32,7.21,3.97,9.47,2.65,2.26,5.79,3.39,9.43,3.39s7.12-1.15,10.99-3.46c2.21-1.33,5.41-3.73,9.6-7.19l1.8,1.59c-2.07,2.63-5.04,5.32-8.91,8.08-6.86,4.93-13.75,7.39-20.66,7.39-4.88,0-9.17-1.73-12.85-5.18-3.69-3.45-5.53-8.4-5.53-14.84,0-10.22,4.61-20.11,13.82-29.68ZM1216.51,407.34l-11.68-14.72-19.28,14.72h-5.6l22.25-23.91h6.91l12.44,23.91h-5.04ZM1201.86,437.18c5.53-4.89,8.29-9.75,8.29-14.58,0-1.75-.41-3.14-1.24-4.17-.83-1.04-2.05-1.55-3.66-1.55-3,0-5.93,1.28-8.81,3.83-2.88,2.55-5.47,5.43-7.77,8.65-2.44,3.77-4.38,7.38-5.8,10.82-.78,1.84-1.61,3.93-2.49,6.27,8.8-1.29,15.96-4.38,21.49-9.27ZM1253.13,390.45c-.51.62-1.08,1.14-1.73,1.55l-24.18,15.06h-4.97l22.94-22.59c.42-.42.97-.76,1.66-1.04.69-.28,1.36-.41,2-.41,1.29,0,2.45.47,3.49,1.42,1.04.95,1.55,2.13,1.55,3.56,0,1.01-.25,1.83-.76,2.45Z" fill="#231f20"/><path d="M1225.5,475.95l11.83-42.7c1.01-3.61,1.6-5.8,1.76-6.56.16-.76.24-1.59.24-2.47,0-1.34-.38-2.4-1.14-3.16-.76-.76-2.25-1.15-4.46-1.15-.55,0-1.09.03-1.62.1-.53.07-1.12.15-1.76.24v-2.28c2.97-.46,5.09-.81,6.35-1.04,1.26-.23,2.62-.51,4.08-.83l12.28-2.7c.27.18.46.39.55.62l-9.16,29.71c5.66-8.61,10.39-15.02,14.19-19.21,6.68-7.42,12.66-11.12,17.95-11.12,2.04,0,3.8.39,5.29,1.17,2.82,1.52,4.24,4.26,4.24,8.22,0,1.11-.12,2.26-.35,3.45-.23,1.2-.53,2.49-.9,3.87l-9.09,33.1c-.18.69-.39,1.53-.62,2.52-.23.99-.35,1.69-.35,2.11,0,.69.16,1.31.48,1.87.32.55.84.83,1.54.83,1.15,0,2.47-.7,3.97-2.11,1.5-1.4,3.95-4.41,7.35-9.02l2,1.8c-3.7,5.11-6.64,8.71-8.81,10.78-3.7,3.64-7.25,5.46-10.64,5.46-1.54,0-3.02-.52-4.44-1.55-1.43-1.04-2.14-2.91-2.14-5.63,0-.78.06-1.61.17-2.49.11-.87.26-1.63.45-2.28l8.82-33.58c.46-1.84.77-3.35.93-4.53.16-1.17.24-2.01.24-2.52,0-1.11-.27-2.06-.8-2.87-.53-.81-1.47-1.21-2.83-1.21-3.5,0-7.91,3.13-13.23,9.39-3.13,3.73-6.3,8.17-9.52,13.32-2.41,4-4.3,7.9-5.68,11.7-1.38,3.8-3.58,10.71-6.6,20.73h-10.61Z" fill="#231f20"/><path d="M1371.3,417.35c2.49,2.52,3.73,4.98,3.73,7.36,0,2.16-.65,3.83-1.93,5.03-1.29,1.19-2.81,1.79-4.56,1.79s-3.13-.53-4.28-1.59c-1.15-1.06-1.73-2.37-1.73-3.94,0-1.2.38-2.49,1.14-3.87.76-1.38,1.14-2.28,1.14-2.69,0-.83-.47-1.53-1.42-2.11-.94-.58-2.45-.86-4.53-.86-7.42,0-13.85,4.22-19.31,12.66-5.46,8.44-8.19,17.29-8.19,26.56,0,5.21,1.11,9.29,3.32,12.25,2.21,2.95,5.53,4.43,9.95,4.43,3.55,0,6.99-1.02,10.33-3.08,3.34-2.05,6.41-4.66,9.22-7.84l.48-.55,2,1.52c-3.22,4.1-6.33,7.25-9.33,9.47-5.3,3.82-11.17,5.73-17.62,5.73s-11.17-1.97-14.99-5.91c-3.82-3.94-5.74-9.32-5.74-16.13,0-10.46,4.26-20.08,12.78-28.88,8.43-8.75,17.55-13.13,27.36-13.13,5.62,0,9.67,1.26,12.16,3.79Z" fill="#231f20"/><path d="M1391.68,383.3c2.97-.42,5.38-.75,7.22-1,1.84-.25,3.43-.49,4.78-.73,5.49-1.06,8.44-1.63,8.86-1.73.42-.09.74-.14.98-.14.56.28.84.62.84,1.04l-17.12,61.7c5.72-8.57,10.39-14.83,14.02-18.79,6.35-6.82,12.18-10.23,17.49-10.23,2.18,0,4.28.7,6.31,2.11,2.03,1.41,3.04,3.93,3.04,7.57,0,.88-.12,2-.35,3.39-.23,1.38-.51,2.6-.83,3.66l-9.17,33.1c-.28.92-.51,1.81-.69,2.66-.18.85-.28,1.62-.28,2.32,0,.78.18,1.37.55,1.76.37.39.9.59,1.59.59,1.43,0,3.11-.99,5.04-2.97,1.2-1.24,3.43-3.96,6.7-8.15l1.8,1.66c-3.22,4.79-5.96,8.29-8.21,10.5-4,3.92-8.03,5.87-12.08,5.87-1.84,0-3.38-.58-4.63-1.73-1.24-1.15-1.86-2.81-1.86-4.98,0-.6.04-1.16.1-1.69.07-.53.2-1.12.38-1.76l10.42-40.49c.09-.37.17-.75.24-1.14.07-.39.1-.79.1-1.21,0-1.15-.34-2.05-1.03-2.7-.73-.64-1.67-.97-2.82-.97-3.07,0-6.94,2.48-11.61,7.43-4.67,4.95-8.61,10.01-11.82,15.17-2.2,3.64-3.86,7.07-4.98,10.29-1.12,3.23-3.29,10.64-6.49,22.25h-10.75l23.21-83.81c.14-.6.23-1.11.28-1.52.04-.42.07-.81.07-1.17,0-1.98-.65-3.17-1.93-3.56-1.29-.39-3.75-.49-7.39-.31v-2.28Z" fill="#231f20"/><path d="M1462.85,426.07c.09-.46.17-.89.24-1.28.07-.39.1-.79.1-1.21,0-1.98-.59-3.19-1.76-3.63-1.17-.44-3.38-.66-6.6-.66v-1.93l10.28-2,11.12-2.07c.23-.05.44.07.63.34.19.27.25.54.21.81l-.21,1.14-13.43,46.68c-.32,1.15-.55,2.05-.69,2.7-.14.65-.21,1.11-.21,1.38,0,1.06.3,1.89.9,2.49.6.6,1.39.9,2.37.9,2.75,0,6.19-2.42,10.31-7.26,4.13-4.84,7.8-9.87,11.01-15.08,2.89-4.66,5.55-9.85,7.97-15.57,1.49-3.55,3.64-9.2,6.43-16.95h10.42l-13.58,49.05c-.23.92-.43,1.77-.61,2.56-.18.78-.27,1.43-.27,1.93,0,.6.14,1.12.42,1.55.28.44.75.66,1.43.66s1.37-.26,2.09-.79,1.62-1.35,2.7-2.45c.5-.51,1.4-1.59,2.7-3.25.81-1.01,2.05-2.56,3.72-4.63l1.97,1.31c-2.1,3.5-4.29,6.52-6.58,9.05-4.52,5.07-8.72,7.61-12.6,7.61-2.01,0-3.66-.55-4.94-1.65s-1.92-2.82-1.92-5.16c0-1.19.11-2.5.35-3.92.23-1.42.6-3.03,1.11-4.82.86-3.23,1.95-7.27,3.29-12.12l1.81-6.5h-.51c-6.42,10.76-11.48,18.37-15.15,22.83-6.38,7.66-12.41,11.48-18.09,11.48-1.54,0-2.93-.32-4.19-.97-2.42-1.29-3.62-3.6-3.62-6.91,0-.97.04-1.75.14-2.35.09-.6.25-1.43.48-2.49l10.75-38.83ZM1515.71,389.76c-.51.62-1.08,1.14-1.73,1.55l-24.18,15.06h-4.97l22.94-22.59c.42-.41.97-.76,1.66-1.04.69-.28,1.36-.42,2-.42,1.29,0,2.45.47,3.49,1.42,1.04.94,1.55,2.13,1.55,3.56,0,1.01-.25,1.83-.76,2.45Z" fill="#231f20"/><path d="M1518.96,475.95l11.83-42.7c1.01-3.61,1.6-5.8,1.76-6.56.16-.76.24-1.59.24-2.47,0-1.34-.38-2.4-1.14-3.16-.76-.76-2.25-1.15-4.46-1.15-.55,0-1.09.03-1.62.1-.53.07-1.12.15-1.76.24v-2.28c2.97-.46,5.09-.81,6.35-1.04,1.26-.23,2.62-.51,4.08-.83l12.28-2.7c.27.18.46.39.55.62l-9.16,29.71c5.66-8.61,10.39-15.02,14.19-19.21,6.68-7.42,12.66-11.12,17.95-11.12,2.04,0,3.8.39,5.29,1.17,2.82,1.52,4.24,4.26,4.24,8.22,0,1.11-.12,2.26-.35,3.45-.23,1.2-.53,2.49-.9,3.87l-9.09,33.1c-.18.69-.39,1.53-.62,2.52-.23.99-.35,1.69-.35,2.11,0,.69.16,1.31.48,1.87.32.55.84.83,1.54.83,1.15,0,2.47-.7,3.97-2.11,1.5-1.4,3.95-4.41,7.35-9.02l2,1.8c-3.7,5.11-6.64,8.71-8.81,10.78-3.7,3.64-7.25,5.46-10.64,5.46-1.54,0-3.02-.52-4.44-1.55-1.43-1.04-2.14-2.91-2.14-5.63,0-.78.06-1.61.17-2.49.11-.87.26-1.63.45-2.28l8.82-33.58c.46-1.84.77-3.35.93-4.53.16-1.17.24-2.01.24-2.52,0-1.11-.27-2.06-.8-2.87-.53-.81-1.47-1.21-2.83-1.21-3.5,0-7.91,3.13-13.23,9.39-3.13,3.73-6.3,8.17-9.52,13.32-2.41,4-4.3,7.9-5.68,11.7-1.38,3.8-3.58,10.71-6.6,20.73h-10.61Z" fill="#231f20"/><path d="M1583.74,479.72c2.65-3.11,6.85-6.21,12.61-9.29-1.15-.74-2.1-1.51-2.83-2.32-.74-.8-1.11-1.88-1.11-3.21,0-1.89,1.31-4.05,3.94-6.49,1.47-1.38,3.87-3.2,7.19-5.46-2.95-1.11-5.48-2.67-7.6-4.7-2.58-2.72-3.87-6.24-3.87-10.57,0-6.96,2.72-12.74,8.15-17.34,5.43-4.61,12.16-6.91,20.18-6.91,4.19,0,7.74.66,10.64,1.97,2.9,1.31,4.61,2.41,5.11,3.28h9.33v5.56h-7.05c.28,1.01.48,1.93.62,2.76.14.83.21,2,.21,3.52,0,7.46-2.89,13.32-8.67,17.6-5.78,4.28-12.01,6.42-18.69,6.42-.69,0-1.34-.03-1.93-.1-.6-.07-1.34-.2-2.21-.38-.69,0-1.64.67-2.83,2-1.24,1.34-1.87,2.53-1.87,3.59,0,1.57,5.07,4.24,15.2,8.02,10.09,3.82,15.13,9.42,15.13,16.79,0,5.53-2.53,10.38-7.6,14.54-5.07,4.17-12.71,6.25-22.94,6.25-7.09,0-12.71-1.52-16.86-4.56s-6.22-6.75-6.22-11.12c0-3.45,1.32-6.74,3.97-9.85ZM1619.26,498.27c3.62-2.62,5.42-5.76,5.42-9.4,0-2.76-.95-5.09-2.83-6.98-1.01-1.01-2.65-2.1-4.91-3.25-1.89-.92-5.08-2.25-9.57-3.97s-7.08-2.59-7.77-2.59c-1.2,0-3.52,1.6-6.98,4.8-3.45,3.2-5.18,6.83-5.18,10.88,0,6.13,2.65,10.34,7.95,12.64,2.76,1.2,6.17,1.8,10.23,1.8,5.48,0,10.03-1.31,13.65-3.94ZM1604.51,447.42c1.47,2.81,4.12,4.21,7.95,4.21,4.15,0,7.84-2.64,11.09-7.91,3.25-5.27,4.87-11.09,4.87-17.45,0-3.04-.67-5.42-2-7.15-1.34-1.73-3.34-2.59-6.01-2.59-5.16,0-9.32,2.74-12.47,8.22-3.16,5.48-4.73,10.76-4.73,15.82,0,2.86.44,5.14,1.31,6.84Z" fill="#231f20"/><path d="M1675.99,470.12c.05-.48.14-.98.28-1.49l13.36-48.22h-10.5c0-1.24.09-2.03.28-2.35.19-.32.65-.65,1.39-.97,4.68-1.99,8.31-3.91,10.88-5.76,2.57-1.85,6.08-5.41,10.53-10.68l1.11-1.32c.14-.18.31-.33.52-.45.21-.12.43-.17.66-.17.46.09.78.18.97.28.14.32.22.61.24.86.02.25.01.52-.04.79l-4.07,15.06h11.39l-.83,4.71h-11.92l-12.73,46.43c-.23.83-.16,1.62.21,2.38s.99,1.14,1.87,1.14c1.2,0,2.88-1.2,5.05-3.59,1.25-1.29,3.34-3.85,6.29-7.67l1.8,1.04-.97,1.45c-3.97,5.94-7.46,10.08-10.49,12.4-3.02,2.33-5.89,3.49-8.62,3.49-2.35,0-4.06-.62-5.12-1.87s-1.59-2.65-1.59-4.21c0-.37.02-.79.07-1.28Z" fill="#231f20"/><path d="M1756.17,416.12c1.07,1.01,1.91,2.35,2.52,4.01l.35.97,1.55-5.21c.19-.59.35-.99.49-1.2.14-.21.47-.33.99-.38l7.96-.89c.42,0,.67.08.74.24.07.16.06.45-.03.86-.2.6-.35,1.07-.45,1.42-.1.34-.25.84-.45,1.48l-6.84,24.73c-1.49,5.39-2.75,10.04-3.79,13.95-1.7,7.07-2.56,11.11-2.56,12.12,0,.64.17,1.11.52,1.41s.77.45,1.28.45c.42,0,.88-.14,1.38-.42.51-.28,1.12-.69,1.85-1.24l1.24-.97c.39-.32.83-.7,1.31-1.14.48-.44,1.07-.98,1.75-1.62l4.51-4.42,1.66,1.45c-4.92,6.13-8.87,10.28-11.86,12.47-2.98,2.19-5.82,3.28-8.52,3.28-1.75,0-3.1-.6-4.04-1.79-.95-1.19-1.42-2.69-1.42-4.48,0-1.65.31-4.03.93-7.13s1.23-5.71,1.83-7.82c-.83,1.38-2.22,3.4-4.17,6.05-1.96,2.65-4.36,5.22-7.21,7.71-3.36,3-6.58,5.12-9.66,6.36-2.39.83-4.69,1.25-6.9,1.25-3.73,0-7.11-1.53-10.14-4.6-3.04-3.07-4.55-7.41-4.55-13.04,0-9.68,4.38-19.78,13.13-30.3,9.03-10.93,18.39-16.39,28.08-16.39,3.68,0,6.52.95,8.52,2.83ZM1753.93,418.75c-1.54-1.57-3.4-2.35-5.59-2.35-7.59,0-14.64,5.76-21.16,17.29-5.73,10.15-8.59,18.89-8.59,26.22,0,3.69.79,6.38,2.38,8.06,1.58,1.68,3.55,2.52,5.9,2.52,6.94,0,13.63-5.6,20.06-16.81,6.2-10.19,9.3-19.39,9.3-27.6,0-3.32-.77-5.76-2.3-7.33Z" fill="#231f20"/><path d="M149.62,280.16h168.55l1.6,50.65h-7.13c-3.49-15.91-7.93-26.27-13.32-31.08-5.39-4.8-16.72-7.2-33.99-7.2h-16.59v152.54c0,11.49,1.79,18.6,5.39,21.35,3.59,2.75,11.45,4.56,23.58,5.43v5.53h-86.89v-5.53c12.61-.96,20.47-3.04,23.58-6.23,3.1-3.19,4.66-11.2,4.66-24.05v-149.04h-16.74c-16.5,0-27.73,2.38-33.69,7.13-5.97,4.75-10.46,15.14-13.46,31.15h-7.28l1.75-50.65Z" fill="#231f20"/><path d="M349.59,280.16h168.55l1.6,50.65h-7.13c-3.49-15.91-7.93-26.27-13.32-31.08-5.39-4.8-16.72-7.2-33.99-7.2h-16.59v152.54c0,11.49,1.79,18.6,5.39,21.35,3.59,2.75,11.45,4.56,23.58,5.43v5.53h-86.89v-5.53c12.61-.96,20.47-3.04,23.58-6.23,3.1-3.19,4.66-11.2,4.66-24.05v-149.04h-16.74c-16.5,0-27.73,2.38-33.69,7.13-5.97,4.75-10.46,15.14-13.46,31.15h-7.28l1.75-50.65Z" fill="#231f20"/><path d="M214.25,138.87h239.7l2.28,72.04h-10.14c-4.97-22.63-11.28-37.36-18.94-44.19-7.66-6.83-23.77-10.25-48.33-10.25h-23.6v216.93c0,16.33,2.55,26.46,7.66,30.37,5.1,3.91,16.28,6.48,33.53,7.72v7.87h-123.58v-7.87c17.94-1.37,29.12-4.32,33.53-8.86,4.41-4.53,6.62-15.93,6.62-34.2v-211.97h-23.8c-23.46,0-39.43,3.38-47.92,10.14-8.49,6.76-14.87,21.53-19.15,44.3h-10.35l2.48-72.04Z" fill="#231f20"/></svg>